<svg width="95" height="68" viewBox="0 0 95 68" fill="none" xmlns="http://www.w3.org/2000/svg">
<rect width="95" height="68" rx="6" fill="#D9D9D9"/>
<path d="M12.7188 27.7344V32.9766H11.4141V20.3594H12.7188V21.8906H12.7578C13.4401 20.7344 14.4375 20.1562 15.75 20.1562C16.849 20.1562 17.7161 20.5417 18.3516 21.3125C18.987 22.0781 19.3047 23.1172 19.3047 24.4297C19.3047 25.8672 18.9479 27.0234 18.2344 27.8984C17.526 28.7682 16.5651 29.2031 15.3516 29.2031C14.2266 29.2031 13.362 28.7135 12.7578 27.7344H12.7188ZM12.7188 25.5C12.7188 26.224 12.9609 26.8385 13.4453 27.3438C13.9297 27.8438 14.526 28.0938 15.2344 28.0938C16.0833 28.0938 16.75 27.7656 17.2344 27.1094C17.724 26.4531 17.9688 25.5469 17.9688 24.3906C17.9688 23.4167 17.7396 22.6536 17.2812 22.1016C16.8229 21.5443 16.2135 21.2656 15.4531 21.2656C14.6615 21.2656 14.0078 21.5469 13.4922 22.1094C12.9766 22.6667 12.7188 23.3802 12.7188 24.25V25.5ZM21.3672 17.25C21.3672 17.0052 21.4479 16.7995 21.6094 16.6328C21.776 16.4609 21.9766 16.375 22.2109 16.375C22.4557 16.375 22.6615 16.4609 22.8281 16.6328C23 16.8047 23.0859 17.0104 23.0859 17.25C23.0859 17.4792 23 17.6797 22.8281 17.8516C22.6615 18.0234 22.4557 18.1094 22.2109 18.1094C21.9661 18.1094 21.763 18.026 21.6016 17.8594C21.4453 17.6927 21.3672 17.4896 21.3672 17.25ZM21.5469 29V20.3594H22.8438V29H21.5469ZM32.7969 29H31.4922V24.0625C31.4922 22.1979 30.8099 21.2656 29.4453 21.2656C28.7318 21.2656 28.1458 21.5339 27.6875 22.0703C27.2292 22.6016 27 23.2682 27 24.0703V29H25.6953V20.3594H27V21.8047H27.0391C27.6849 20.7057 28.6302 20.1562 29.875 20.1562C30.8229 20.1562 31.5469 20.4609 32.0469 21.0703C32.5469 21.6797 32.7969 22.5625 32.7969 23.7188V29ZM42.5078 29H40.6562L36.7734 24.8594H36.7344V29H35.4297V16.2109H36.7344V24.3203H36.7734L40.4609 20.3594H42.1875L38.125 24.5391L42.5078 29ZM48.3516 24.6953H43.75V23.6562H48.3516V24.6953ZM50.5312 27.1094C51.3594 27.7656 52.2917 28.0938 53.3281 28.0938C54.1615 28.0938 54.8385 27.8828 55.3594 27.4609C55.8854 27.0391 56.1484 26.4583 56.1484 25.7188C56.1484 24.1042 55.0104 23.2969 52.7344 23.2969H51.7344V22.1797H52.6875C54.7083 22.1797 55.7188 21.4245 55.7188 19.9141C55.7188 18.513 54.9479 17.8125 53.4062 17.8125C52.5521 17.8125 51.75 18.1068 51 18.6953V17.3906C51.7708 16.9271 52.6823 16.6953 53.7344 16.6953C54.6927 16.6953 55.4844 16.9583 56.1094 17.4844C56.7396 18.0104 57.0547 18.7083 57.0547 19.5781C57.0547 21.1615 56.2448 22.1875 54.625 22.6562V22.6875C55.4844 22.7604 56.1745 23.0625 56.6953 23.5938C57.2214 24.125 57.4844 24.7865 57.4844 25.5781C57.4844 26.6823 57.0859 27.5625 56.2891 28.2188C55.4974 28.875 54.4844 29.2031 53.25 29.2031C52.1146 29.2031 51.2083 28.987 50.5312 28.5547V27.1094ZM19.8281 44.3125L19.6406 45.1641H17.4062L16.8672 47.7266H19.2812L19.0625 48.5781H16.7031L15.9531 51.9531H14.9297L15.6641 48.5781H13.5469L12.8281 51.9531H11.8125L12.5312 48.5781H10.2812L10.4297 47.7266H12.7109L13.2266 45.1641H10.8516L11.0234 44.3125H13.3984L14.1172 40.8906H15.1328L14.4219 44.3125H16.5547L17.2891 40.8906H18.2812L17.5703 44.3125H19.8281ZM16.4062 45.1641H14.2578L13.6953 47.7266H15.8594L16.4062 45.1641ZM27.9062 42.1172H23.1484V46.3828H27.5547V47.6016H23.1484V53H21.8203V40.8984H27.9062V42.1172ZM36.3125 42.1172H31.5547V46.3828H35.9609V47.6016H31.5547V53H30.2266V40.8984H36.3125V42.1172ZM38.6328 53V40.8984H42.0156C43.0208 40.8984 43.8307 41.151 44.4453 41.6562C45.0599 42.1615 45.3672 42.8307 45.3672 43.6641C45.3672 44.3411 45.1849 44.9349 44.8203 45.4453C44.4609 45.9557 43.9505 46.3229 43.2891 46.5469V46.5781C44.0964 46.6562 44.7448 46.9583 45.2344 47.4844C45.7292 48.0104 45.9766 48.6927 45.9766 49.5312C45.9766 50.5573 45.6068 51.3932 44.8672 52.0391C44.1328 52.6797 43.2031 53 42.0781 53H38.6328ZM39.9609 42.1328V46.1094H41.4297C42.2318 46.1094 42.8568 45.9193 43.3047 45.5391C43.7526 45.1536 43.9766 44.6172 43.9766 43.9297C43.9766 42.7318 43.1953 42.1328 41.6328 42.1328H39.9609ZM39.9609 47.3359V51.7656H41.9219C42.7552 51.7656 43.4062 51.5677 43.875 51.1719C44.349 50.7708 44.5859 50.2188 44.5859 49.5156C44.5859 48.0625 43.5911 47.3359 41.6016 47.3359H39.9609ZM48.3203 51.5234C49.0026 51.9036 49.7135 52.0938 50.4531 52.0938C51.5521 52.0938 52.4115 51.6458 53.0312 50.75C53.651 49.849 53.9609 48.5703 53.9609 46.9141C53.9505 46.9245 53.9401 46.9245 53.9297 46.9141C53.4089 47.9661 52.5026 48.4922 51.2109 48.4922C50.1693 48.4922 49.3177 48.1354 48.6562 47.4219C47.9948 46.7083 47.6641 45.8099 47.6641 44.7266C47.6641 43.5755 48.0156 42.6172 48.7188 41.8516C49.4271 41.0807 50.362 40.6953 51.5234 40.6953C52.737 40.6953 53.6667 41.1719 54.3125 42.125C54.9583 43.0729 55.2812 44.4375 55.2812 46.2188C55.2812 48.4167 54.8568 50.1302 54.0078 51.3594C53.1641 52.5885 51.9609 53.2031 50.3984 53.2031C49.5911 53.2031 48.8984 53.0677 48.3203 52.7969V51.5234ZM49 44.5312C49 45.375 49.2214 46.0521 49.6641 46.5625C50.1068 47.0677 50.7161 47.3203 51.4922 47.3203C52.1797 47.3203 52.7474 47.0938 53.1953 46.6406C53.6484 46.1823 53.875 45.6302 53.875 44.9844C53.875 44.0833 53.6484 43.3307 53.1953 42.7266C52.7474 42.1172 52.1484 41.8125 51.3984 41.8125C50.6953 41.8125 50.1198 42.0781 49.6719 42.6094C49.224 43.1354 49 43.776 49 44.5312ZM65.9453 52.4844C65.0547 52.9635 63.9427 53.2031 62.6094 53.2031C60.9115 53.2031 59.5417 52.6432 58.5 51.5234C57.4635 50.4036 56.9453 48.9557 56.9453 47.1797C56.9453 45.3151 57.5156 43.7682 58.6562 42.5391C59.7969 41.3099 61.2786 40.6953 63.1016 40.6953C64.2474 40.6953 65.1953 40.862 65.9453 41.1953V42.6328C65.0755 42.1536 64.1172 41.9141 63.0703 41.9141C61.6328 41.9141 60.4844 42.3984 59.625 43.3672C58.7708 44.3359 58.3438 45.5807 58.3438 47.1016C58.3438 48.5443 58.7448 49.7214 59.5469 50.6328C60.349 51.5443 61.4245 52 62.7734 52C63.9922 52 65.0495 51.7292 65.9453 51.1875V52.4844ZM74.5156 42.1172H69.7578V46.3828H74.1641V47.6016H69.7578V53H68.4297V40.8984H74.5156V42.1172Z" fill="black"/>
</svg>
