<svg width="95" height="68" viewBox="0 0 95 68" fill="none" xmlns="http://www.w3.org/2000/svg">
<rect width="95" height="68" rx="6" fill="#D97B00"/>
<path d="M15.8516 21.6953C15.612 21.513 15.2656 21.4219 14.8125 21.4219C14.2031 21.4219 13.7005 21.7135 13.3047 22.2969C12.9141 22.875 12.7188 23.6354 12.7188 24.5781V29H11.4141V20.3594H12.7188V22.1484H12.7578C12.9557 21.5339 13.2578 21.0573 13.6641 20.7188C14.0703 20.3802 14.5182 20.2109 15.0078 20.2109C15.3776 20.2109 15.6589 20.25 15.8516 20.3281V21.6953ZM24.2578 25H18.1328C18.1589 25.9948 18.4219 26.7578 18.9219 27.2891C19.4219 27.8203 20.1068 28.0859 20.9766 28.0859C21.9505 28.0859 22.849 27.7604 23.6719 27.1094V28.3594C22.9167 28.9219 21.9167 29.2031 20.6719 29.2031C19.4688 29.2031 18.5182 28.8099 17.8203 28.0234C17.1276 27.237 16.7812 26.1302 16.7812 24.7031C16.7812 23.3906 17.1562 22.3047 17.9062 21.4453C18.6615 20.5859 19.6042 20.1562 20.7344 20.1562C21.8438 20.1562 22.7083 20.5208 23.3281 21.25C23.9479 21.9792 24.2578 22.9948 24.2578 24.2969V25ZM22.9141 23.8516C22.9089 23.0391 22.7135 22.4089 22.3281 21.9609C21.9427 21.5078 21.4036 21.2812 20.7109 21.2812C20.0807 21.2812 19.526 21.5078 19.0469 21.9609C18.5729 22.4141 18.2734 23.0443 18.1484 23.8516H22.9141ZM33.6875 29H32.3906V27.5156H32.3594C31.7188 28.6406 30.724 29.2031 29.375 29.2031C28.2812 29.2031 27.4115 28.8151 26.7656 28.0391C26.1198 27.2578 25.7969 26.2057 25.7969 24.8828C25.7969 23.4661 26.1589 22.3255 26.8828 21.4609C27.6068 20.5911 28.5625 20.1562 29.75 20.1562C30.9375 20.1562 31.8073 20.6276 32.3594 21.5703H32.3906V16.2109H33.6875V29ZM32.3906 23.7969C32.3906 23.0885 32.1484 22.4896 31.6641 22C31.1849 21.5104 30.5964 21.2656 29.8984 21.2656C29.0339 21.2656 28.3542 21.5859 27.8594 22.2266C27.3698 22.862 27.125 23.724 27.125 24.8125C27.125 25.8073 27.3594 26.6042 27.8281 27.2031C28.3021 27.7969 28.9375 28.0938 29.7344 28.0938C30.5 28.0938 31.1328 27.8151 31.6328 27.2578C32.138 26.6953 32.3906 25.9792 32.3906 25.1094V23.7969ZM40.9297 24.6953H36.3281V23.6562H40.9297V24.6953ZM50.4922 17.2812L45.6641 29H44.3203L48.8672 18.0859H42.7344V16.8984H50.4922V17.2812ZM19.8281 44.3125L19.6406 45.1641H17.4062L16.8672 47.7266H19.2812L19.0625 48.5781H16.7031L15.9531 51.9531H14.9297L15.6641 48.5781H13.5469L12.8281 51.9531H11.8125L12.5312 48.5781H10.2812L10.4297 47.7266H12.7109L13.2266 45.1641H10.8516L11.0234 44.3125H13.3984L14.1172 40.8906H15.1328L14.4219 44.3125H16.5547L17.2891 40.8906H18.2812L17.5703 44.3125H19.8281ZM16.4062 45.1641H14.2578L13.6953 47.7266H15.8594L16.4062 45.1641ZM30.0234 52.4844C29.1328 52.9635 28.0208 53.2031 26.6875 53.2031C24.9896 53.2031 23.6198 52.6432 22.5781 51.5234C21.5417 50.4036 21.0234 48.9557 21.0234 47.1797C21.0234 45.3151 21.5938 43.7682 22.7344 42.5391C23.875 41.3099 25.3568 40.6953 27.1797 40.6953C28.3255 40.6953 29.2734 40.862 30.0234 41.1953V42.6328C29.1536 42.1536 28.1953 41.9141 27.1484 41.9141C25.7109 41.9141 24.5625 42.3984 23.7031 43.3672C22.849 44.3359 22.4219 45.5807 22.4219 47.1016C22.4219 48.5443 22.8229 49.7214 23.625 50.6328C24.4271 51.5443 25.5026 52 26.8516 52C28.0703 52 29.1276 51.7292 30.0234 51.1875V52.4844ZM32.3672 51.5234C33.0495 51.9036 33.7604 52.0938 34.5 52.0938C35.599 52.0938 36.4583 51.6458 37.0781 50.75C37.6979 49.849 38.0078 48.5703 38.0078 46.9141C37.9974 46.9245 37.987 46.9245 37.9766 46.9141C37.4557 47.9661 36.5495 48.4922 35.2578 48.4922C34.2161 48.4922 33.3646 48.1354 32.7031 47.4219C32.0417 46.7083 31.7109 45.8099 31.7109 44.7266C31.7109 43.5755 32.0625 42.6172 32.7656 41.8516C33.474 41.0807 34.4089 40.6953 35.5703 40.6953C36.7839 40.6953 37.7135 41.1719 38.3594 42.125C39.0052 43.0729 39.3281 44.4375 39.3281 46.2188C39.3281 48.4167 38.9036 50.1302 38.0547 51.3594C37.2109 52.5885 36.0078 53.2031 34.4453 53.2031C33.638 53.2031 32.9453 53.0677 32.3672 52.7969V51.5234ZM33.0469 44.5312C33.0469 45.375 33.2682 46.0521 33.7109 46.5625C34.1536 47.0677 34.763 47.3203 35.5391 47.3203C36.2266 47.3203 36.7943 47.0938 37.2422 46.6406C37.6953 46.1823 37.9219 45.6302 37.9219 44.9844C37.9219 44.0833 37.6953 43.3307 37.2422 42.7266C36.7943 42.1172 36.1953 41.8125 35.4453 41.8125C34.7422 41.8125 34.1667 42.0781 33.7188 42.6094C33.2708 43.1354 33.0469 43.776 33.0469 44.5312ZM48.2344 53H40.9922V51.8203L44.5156 48.2734C45.6823 47.0964 46.3984 46.2448 46.6641 45.7188C46.9349 45.1875 47.0703 44.625 47.0703 44.0312C47.0703 43.3177 46.8672 42.7682 46.4609 42.3828C46.0599 41.9974 45.4818 41.8047 44.7266 41.8047C43.6484 41.8047 42.612 42.2708 41.6172 43.2031V41.8125C42.5495 41.0677 43.6432 40.6953 44.8984 40.6953C45.9401 40.6953 46.7734 40.9844 47.3984 41.5625C48.0286 42.1406 48.3438 42.9245 48.3438 43.9141C48.3438 44.6745 48.1354 45.4245 47.7188 46.1641C47.3073 46.8984 46.526 47.8411 45.375 48.9922L42.5547 51.7812V51.8125H48.2344V53ZM57.4297 53H51.0703V40.8984H57.1562V42.1172H52.3984V46.2344H56.7969V47.4531H52.3984V51.7812H57.4297V53ZM59.2812 51.1094C60.1094 51.7656 61.0417 52.0938 62.0781 52.0938C62.9115 52.0938 63.5885 51.8828 64.1094 51.4609C64.6354 51.0391 64.8984 50.4583 64.8984 49.7188C64.8984 48.1042 63.7604 47.2969 61.4844 47.2969H60.4844V46.1797H61.4375C63.4583 46.1797 64.4688 45.4245 64.4688 43.9141C64.4688 42.513 63.6979 41.8125 62.1562 41.8125C61.3021 41.8125 60.5 42.1068 59.75 42.6953V41.3906C60.5208 40.9271 61.4323 40.6953 62.4844 40.6953C63.4427 40.6953 64.2344 40.9583 64.8594 41.4844C65.4896 42.0104 65.8047 42.7083 65.8047 43.5781C65.8047 45.1615 64.9948 46.1875 63.375 46.6562V46.6875C64.2344 46.7604 64.9245 47.0625 65.4453 47.5938C65.9714 48.125 66.2344 48.7865 66.2344 49.5781C66.2344 50.6823 65.8359 51.5625 65.0391 52.2188C64.2474 52.875 63.2344 53.2031 62 53.2031C60.8646 53.2031 59.9583 52.987 59.2812 52.5547V51.1094ZM76.1484 49.75H74.5859V53H73.2891V49.75H67.5703V48.8906L72.9766 40.8984H74.5859V48.6719H76.1484V49.75ZM73.2891 48.6719V43.3438C73.2891 42.974 73.2995 42.5547 73.3203 42.0859H73.2891C73.2474 42.2005 73.0938 42.5104 72.8281 43.0156L69.0234 48.6719H73.2891Z" fill="white"/>
</svg>
