<svg width="95" height="68" viewBox="0 0 95 68" fill="none" xmlns="http://www.w3.org/2000/svg">
<rect width="95" height="68" rx="6" fill="#FFD77A"/>
<path d="M15.8516 21.6953C15.612 21.513 15.2656 21.4219 14.8125 21.4219C14.2031 21.4219 13.7005 21.7135 13.3047 22.2969C12.9141 22.875 12.7188 23.6354 12.7188 24.5781V29H11.4141V20.3594H12.7188V22.1484H12.7578C12.9557 21.5339 13.2578 21.0573 13.6641 20.7188C14.0703 20.3802 14.5182 20.2109 15.0078 20.2109C15.3776 20.2109 15.6589 20.25 15.8516 20.3281V21.6953ZM24.2578 25H18.1328C18.1589 25.9948 18.4219 26.7578 18.9219 27.2891C19.4219 27.8203 20.1068 28.0859 20.9766 28.0859C21.9505 28.0859 22.849 27.7604 23.6719 27.1094V28.3594C22.9167 28.9219 21.9167 29.2031 20.6719 29.2031C19.4688 29.2031 18.5182 28.8099 17.8203 28.0234C17.1276 27.237 16.7812 26.1302 16.7812 24.7031C16.7812 23.3906 17.1562 22.3047 17.9062 21.4453C18.6615 20.5859 19.6042 20.1562 20.7344 20.1562C21.8438 20.1562 22.7083 20.5208 23.3281 21.25C23.9479 21.9792 24.2578 22.9948 24.2578 24.2969V25ZM22.9141 23.8516C22.9089 23.0391 22.7135 22.4089 22.3281 21.9609C21.9427 21.5078 21.4036 21.2812 20.7109 21.2812C20.0807 21.2812 19.526 21.5078 19.0469 21.9609C18.5729 22.4141 18.2734 23.0443 18.1484 23.8516H22.9141ZM33.6875 29H32.3906V27.5156H32.3594C31.7188 28.6406 30.724 29.2031 29.375 29.2031C28.2812 29.2031 27.4115 28.8151 26.7656 28.0391C26.1198 27.2578 25.7969 26.2057 25.7969 24.8828C25.7969 23.4661 26.1589 22.3255 26.8828 21.4609C27.6068 20.5911 28.5625 20.1562 29.75 20.1562C30.9375 20.1562 31.8073 20.6276 32.3594 21.5703H32.3906V16.2109H33.6875V29ZM32.3906 23.7969C32.3906 23.0885 32.1484 22.4896 31.6641 22C31.1849 21.5104 30.5964 21.2656 29.8984 21.2656C29.0339 21.2656 28.3542 21.5859 27.8594 22.2266C27.3698 22.862 27.125 23.724 27.125 24.8125C27.125 25.8073 27.3594 26.6042 27.8281 27.2031C28.3021 27.7969 28.9375 28.0938 29.7344 28.0938C30.5 28.0938 31.1328 27.8151 31.6328 27.2578C32.138 26.6953 32.3906 25.9792 32.3906 25.1094V23.7969ZM40.9297 24.6953H36.3281V23.6562H40.9297V24.6953ZM43.1094 27.1094C43.9375 27.7656 44.8698 28.0938 45.9062 28.0938C46.7396 28.0938 47.4167 27.8828 47.9375 27.4609C48.4635 27.0391 48.7266 26.4583 48.7266 25.7188C48.7266 24.1042 47.5885 23.2969 45.3125 23.2969H44.3125V22.1797H45.2656C47.2865 22.1797 48.2969 21.4245 48.2969 19.9141C48.2969 18.513 47.526 17.8125 45.9844 17.8125C45.1302 17.8125 44.3281 18.1068 43.5781 18.6953V17.3906C44.349 16.9271 45.2604 16.6953 46.3125 16.6953C47.2708 16.6953 48.0625 16.9583 48.6875 17.4844C49.3177 18.0104 49.6328 18.7083 49.6328 19.5781C49.6328 21.1615 48.8229 22.1875 47.2031 22.6562V22.6875C48.0625 22.7604 48.7526 23.0625 49.2734 23.5938C49.7995 24.125 50.0625 24.7865 50.0625 25.5781C50.0625 26.6823 49.6641 27.5625 48.8672 28.2188C48.0755 28.875 47.0625 29.2031 45.8281 29.2031C44.6927 29.2031 43.7865 28.987 43.1094 28.5547V27.1094ZM19.8281 44.3125L19.6406 45.1641H17.4062L16.8672 47.7266H19.2812L19.0625 48.5781H16.7031L15.9531 51.9531H14.9297L15.6641 48.5781H13.5469L12.8281 51.9531H11.8125L12.5312 48.5781H10.2812L10.4297 47.7266H12.7109L13.2266 45.1641H10.8516L11.0234 44.3125H13.3984L14.1172 40.8906H15.1328L14.4219 44.3125H16.5547L17.2891 40.8906H18.2812L17.5703 44.3125H19.8281ZM16.4062 45.1641H14.2578L13.6953 47.7266H15.8594L16.4062 45.1641ZM27.9062 42.1172H23.1484V46.3828H27.5547V47.6016H23.1484V53H21.8203V40.8984H27.9062V42.1172ZM36.3125 42.1172H31.5547V46.3828H35.9609V47.6016H31.5547V53H30.2266V40.8984H36.3125V42.1172ZM46.8359 52.4844C45.9453 52.9635 44.8333 53.2031 43.5 53.2031C41.8021 53.2031 40.4323 52.6432 39.3906 51.5234C38.3542 50.4036 37.8359 48.9557 37.8359 47.1797C37.8359 45.3151 38.4062 43.7682 39.5469 42.5391C40.6875 41.3099 42.1693 40.6953 43.9922 40.6953C45.138 40.6953 46.0859 40.862 46.8359 41.1953V42.6328C45.9661 42.1536 45.0078 41.9141 43.9609 41.9141C42.5234 41.9141 41.375 42.3984 40.5156 43.3672C39.6615 44.3359 39.2344 45.5807 39.2344 47.1016C39.2344 48.5443 39.6354 49.7214 40.4375 50.6328C41.2396 51.5443 42.3151 52 43.6641 52C44.8828 52 45.9401 51.7292 46.8359 51.1875V52.4844ZM51.2031 46.625C49.7448 45.9375 49.0156 44.9531 49.0156 43.6719C49.0156 42.7865 49.3542 42.0703 50.0312 41.5234C50.7083 40.9714 51.5469 40.6953 52.5469 40.6953C53.4427 40.6953 54.2005 40.9531 54.8203 41.4688C55.4401 41.9792 55.75 42.651 55.75 43.4844C55.75 44.8281 55 45.875 53.5 46.625V46.6562C55.2656 47.3229 56.1484 48.4167 56.1484 49.9375C56.1484 50.9688 55.7812 51.7708 55.0469 52.3438C54.3125 52.9167 53.3307 53.2031 52.1016 53.2031C51.0964 53.2031 50.2552 52.9141 49.5781 52.3359C48.9062 51.7526 48.5703 50.9922 48.5703 50.0547C48.5703 48.5026 49.4479 47.3698 51.2031 46.6562V46.625ZM54.3984 43.6562C54.3984 43.0833 54.2161 42.6354 53.8516 42.3125C53.4922 41.9844 53.013 41.8203 52.4141 41.8203C51.862 41.8203 51.3828 41.9922 50.9766 42.3359C50.5703 42.6745 50.3672 43.1042 50.3672 43.625C50.3672 44.6979 51.0312 45.5078 52.3594 46.0547C53.7188 45.4818 54.3984 44.6823 54.3984 43.6562ZM52.2656 47.2891C50.6979 47.9141 49.9141 48.8151 49.9141 49.9922C49.9141 50.6432 50.1484 51.1562 50.6172 51.5312C51.0859 51.901 51.6823 52.0859 52.4062 52.0859C53.1042 52.0859 53.6797 51.901 54.1328 51.5312C54.5859 51.1562 54.8125 50.6615 54.8125 50.0469C54.8125 48.8177 53.9635 47.8984 52.2656 47.2891ZM66.8047 52.4844C65.9141 52.9635 64.8021 53.2031 63.4688 53.2031C61.7708 53.2031 60.401 52.6432 59.3594 51.5234C58.3229 50.4036 57.8047 48.9557 57.8047 47.1797C57.8047 45.3151 58.375 43.7682 59.5156 42.5391C60.6562 41.3099 62.138 40.6953 63.9609 40.6953C65.1068 40.6953 66.0547 40.862 66.8047 41.1953V42.6328C65.9349 42.1536 64.9766 41.9141 63.9297 41.9141C62.4922 41.9141 61.3438 42.3984 60.4844 43.3672C59.6302 44.3359 59.2031 45.5807 59.2031 47.1016C59.2031 48.5443 59.6042 49.7214 60.4062 50.6328C61.2083 51.5443 62.2839 52 63.6328 52C64.8516 52 65.9089 51.7292 66.8047 51.1875V52.4844ZM75.7344 53H68.4922V51.8203L72.0156 48.2734C73.1823 47.0964 73.8984 46.2448 74.1641 45.7188C74.4349 45.1875 74.5703 44.625 74.5703 44.0312C74.5703 43.3177 74.3672 42.7682 73.9609 42.3828C73.5599 41.9974 72.9818 41.8047 72.2266 41.8047C71.1484 41.8047 70.112 42.2708 69.1172 43.2031V41.8125C70.0495 41.0677 71.1432 40.6953 72.3984 40.6953C73.4401 40.6953 74.2734 40.9844 74.8984 41.5625C75.5286 42.1406 75.8438 42.9245 75.8438 43.9141C75.8438 44.6745 75.6354 45.4245 75.2188 46.1641C74.8073 46.8984 74.026 47.8411 72.875 48.9922L70.0547 51.7812V51.8125H75.7344V53Z" fill="black"/>
</svg>
